<svg xmlns="http://www.w3.org/2000/svg" viewBox="0 0 32 32">
  <!-- 배경 말풍선 -->
  <path d="M2,5 C2,3.34 3.34,2 5,2 L27,2 C28.66,2 30,3.34 30,5 L30,21 C30,22.66 28.66,24 27,24 L16,24 L8,30 L8,24 L5,24 C3.34,24 2,22.66 2,21 L2,5 Z" fill="#5e72e4"/>
  
  <!-- 나노 바나나 아이콘 -->
  <path d="M12,18 C12,18 13,10 22,8 C22,8 18,9 16,13 C14,17 12,18 12,18 Z" fill="#FFD700"/>
  <path d="M13,17 C13,17 14,11 21,9 C21,9 18,10 16,13 C14,16 13,17 13,17 Z" fill="#FFE135"/>
  
  <!-- 바나나 꼭지 부분 -->
  <path d="M12,18 L11,19" stroke="#4E342E" stroke-width="1.5" stroke-linecap="round"/>
</svg>
