<svg xmlns="http://www.w3.org/2000/svg" viewBox="0 0 32 32" fill="none">
  <!-- 배경: 부드러운 라운드 스퀘어 -->
  <rect width="32" height="32" rx="8" fill="#5e72e4"/>
  
  <!-- 말풍선 실루엣 -->
  <path d="M22 11H10C8.89543 11 8 11.8954 8 13V19C8 20.1046 8.89543 21 10 21H13L16 24L19 21H22C23.1046 21 24 20.1046 24 19V13C24 11.8954 23.1046 11 22 11Z" fill="white" fill-opacity="0.2"/>
  
  <!-- 생성 중인 문장을 상징하는 라인 -->
  <rect x="11" y="14" width="6" height="1.5" rx="0.75" fill="white"/>
  <rect x="11" y="17" width="10" height="1.5" rx="0.75" fill="white"/>
  
  <!-- AI 마법 효과 (Sparkle) -->
  <path d="M23 7L23.5 9.5L25.5 10L23.5 10.5L23 13L22.5 10.5L20.5 10L22.5 9.5L23 7Z" fill="#FFE135"/>
  <path d="M27 13L27.3 14.7L28.5 15L27.3 15.3L27 17L26.7 15.3L25.5 15L26.7 14.7L27 13Z" fill="#FFE135" fill-opacity="0.8"/>
</svg>